<svg width="128" height="128" viewBox="0 0 128 128" fill="none" xmlns="http://www.w3.org/2000/svg">
<circle cx="64" cy="64" r="64" fill="#686DE0"/>
<path d="M63.3247 56.0455C62.4228 55.1558 60.9567 55.1513 60.0502 56.041L52.4374 63.5554L49.4497 60.6035C48.5478 59.7138 47.0817 59.7138 46.1798 60.6035C45.2779 61.4932 45.2779 62.9395 46.1798 63.8292L50.8048 68.3916C51.2534 68.8388 51.8454 69.0623 52.4374 69.0623C53.0294 69.0623 53.6214 68.8388 54.0747 68.3962L63.3247 59.2712C64.2266 58.3815 64.2266 56.9352 63.3247 56.0455Z" fill="#F5F6FA"/>
<path d="M63.3247 74.2955C62.4228 73.4058 60.9567 73.4013 60.0502 74.291L52.4374 81.8054L49.4497 78.858C48.5478 77.9683 47.0817 77.9683 46.1798 78.858C45.2779 79.7477 45.2779 81.194 46.1798 82.0837L50.8048 86.6462C51.2534 87.0888 51.8454 87.3123 52.4374 87.3123C53.0294 87.3123 53.6214 87.0888 54.0747 86.6462L63.3247 77.5212C64.2266 76.6315 64.2266 75.1852 63.3247 74.2955Z" fill="#F5F6FA"/>
<path d="M80.1875 59.9375H70.9375C69.661 59.9375 68.625 60.9595 68.625 62.2188C68.625 63.478 69.661 64.5 70.9375 64.5H80.1875C81.464 64.5 82.5 63.478 82.5 62.2188C82.5 60.9595 81.464 59.9375 80.1875 59.9375Z" fill="#F5F6FA"/>
<path d="M80.1875 78.1875H70.9375C69.661 78.1875 68.625 79.2095 68.625 80.4688C68.625 81.728 69.661 82.75 70.9375 82.75H80.1875C81.464 82.75 82.5 81.728 82.5 80.4688C82.5 79.2095 81.464 78.1875 80.1875 78.1875Z" fill="#F5F6FA"/>
<path d="M87.125 37.125H77.875V34.8438C77.875 33.5845 76.839 32.5625 75.5625 32.5625H70.5444C69.587 29.9071 67.0155 28 64 28C60.9845 28 58.413 29.9071 57.4556 32.5625H52.4375C51.161 32.5625 50.125 33.5845 50.125 34.8438V37.125H40.875C38.3266 37.125 36.25 39.1736 36.25 41.6875V96.4375C36.25 98.9514 38.3266 101 40.875 101H87.125C89.6734 101 91.75 98.9514 91.75 96.4375V41.6875C91.75 39.1736 89.6734 37.125 87.125 37.125ZM54.75 37.125H59.375C60.6515 37.125 61.6875 36.103 61.6875 34.8438C61.6875 33.5845 62.7235 32.5625 64 32.5625C65.2765 32.5625 66.3125 33.5845 66.3125 34.8438C66.3125 36.103 67.3485 37.125 68.625 37.125H73.25V41.6875H54.75V37.125ZM87.125 96.4375H40.875V41.6875H50.125V43.9688C50.125 45.228 51.161 46.25 52.4375 46.25H75.5625C76.839 46.25 77.875 45.228 77.875 43.9688V41.6875H87.125V96.4375Z" fill="#F5F6FA"/>
</svg>
