<svg width="128" height="128" viewBox="0 0 128 128" fill="none" xmlns="http://www.w3.org/2000/svg">
<circle cx="64" cy="64" r="64" fill="#686DE0"/>
<path d="M90.4629 40.3828H88.6172V38.5371C88.6172 35.4839 86.1332 33 83.0801 33C80.0269 33 77.543 35.4839 77.543 38.5371V40.3828H70.1602V38.5371C70.1602 35.4839 67.6762 33 64.623 33C61.5699 33 59.0859 35.4839 59.0859 38.5371V40.3828H51.457V38.5371C51.457 35.4839 48.9731 33 45.9199 33C42.8668 33 40.3828 35.4839 40.3828 38.5371V40.3828H38.5371C35.4839 40.3828 33 42.8668 33 45.9199C33 46.1877 33 89.7551 33 90.4629C33 93.5161 35.4839 96 38.5371 96H90.4629C93.5161 96 96 93.5161 96 90.4629C96 90.1229 96 46.5197 96 45.9199C96 42.8668 93.5161 40.3828 90.4629 40.3828ZM81.2344 38.5371C81.2344 37.5194 82.0624 36.6914 83.0801 36.6914C84.0978 36.6914 84.9258 37.5194 84.9258 38.5371V45.9199C84.9258 46.9376 84.0978 47.7656 83.0801 47.7656C82.0624 47.7656 81.2344 46.9376 81.2344 45.9199V38.5371ZM62.7773 38.5371C62.7773 37.5194 63.6053 36.6914 64.623 36.6914C65.6408 36.6914 66.4688 37.5194 66.4688 38.5371V45.9199C66.4688 46.9376 65.6408 47.7656 64.623 47.7656C63.6053 47.7656 62.7773 46.9376 62.7773 45.9199V38.5371ZM44.0742 38.5371C44.0742 37.5194 44.9022 36.6914 45.9199 36.6914C46.9376 36.6914 47.7656 37.5194 47.7656 38.5371V45.9199C47.7656 46.9376 46.9376 47.7656 45.9199 47.7656C44.9022 47.7656 44.0742 46.9376 44.0742 45.9199V38.5371ZM92.3086 90.4629C92.3086 91.4806 91.4806 92.3086 90.4629 92.3086H38.5371C37.5194 92.3086 36.6914 91.4806 36.6914 90.4629V59.0859H92.3086V90.4629ZM92.3086 55.3945H36.6914V45.9199C36.6914 44.9022 37.5194 44.0742 38.5371 44.0742H40.3828V45.9199C40.3828 48.9731 42.8668 51.457 45.9199 51.457C48.9731 51.457 51.457 48.9731 51.457 45.9199V44.0742H59.0859V45.9199C59.0859 48.9731 61.5699 51.457 64.623 51.457C67.6762 51.457 70.1602 48.9731 70.1602 45.9199V44.0742H77.543V45.9199C77.543 48.9731 80.0269 51.457 83.0801 51.457C86.1332 51.457 88.6172 48.9731 88.6172 45.9199V44.0742H90.4629C91.4806 44.0742 92.3086 44.9022 92.3086 45.9199V55.3945Z" fill="white"/>
<path d="M86.7715 62.7773H42.2285C41.2092 62.7773 40.3828 63.6037 40.3828 64.623V86.7715C40.3828 87.7908 41.2092 88.6172 42.2285 88.6172H86.7715C87.7908 88.6172 88.6172 87.7908 88.6172 86.7715V64.623C88.6172 63.6037 87.7908 62.7773 86.7715 62.7773ZM51.457 84.9258H44.0742V77.543H51.457V84.9258ZM51.457 73.8516H44.0742V66.4688H51.457V73.8516ZM62.7773 84.9258H55.1484V77.543H62.7773V84.9258ZM62.7773 73.8516H55.1484V66.4688H62.7773V73.8516ZM73.8516 84.9258H66.4688V77.543H73.8516V84.9258ZM73.8516 73.8516H66.4688V66.4688H73.8516V73.8516ZM84.9258 84.9258H77.543V77.543H84.9258V84.9258ZM84.9258 73.8516H77.543V66.4688H84.9258V73.8516Z" fill="white"/>
</svg>
