<svg width="128" height="128" viewBox="0 0 128 128" fill="none" xmlns="http://www.w3.org/2000/svg">
<circle cx="64" cy="64" r="64" fill="#686DE0"/>
<path d="M91.5626 46.8335L73.1341 29.6099C72.7473 29.305 72.0985 29 71.5745 29H39.1218C37.6994 29 36.5266 30.3651 36.5266 32.0207V96.9793C36.5266 98.6349 37.6994 100 39.1218 100H90.003C91.4254 100 92.4734 98.6349 92.4734 96.9793V49.099C92.4734 48.1841 92.2114 47.4289 91.5626 46.8335ZM74.1697 38.1782L84.1887 47.5741H74.1697V38.1782ZM41.717 94.1184V34.8961H68.9793V50.4641C68.9793 52.1197 70.1521 53.4848 71.5745 53.4848H87.4078V94.1329H41.717V94.1184Z" fill="white"/>
<path d="M58.8602 59.7002C58.5358 58.7127 57.7248 58.0737 56.8265 58.0737C55.9281 58.0737 55.1171 58.7272 54.7927 59.7002L45.7719 87.0749C45.3352 88.382 45.8966 89.8487 47.032 90.357C47.294 90.4732 47.5561 90.5313 47.8181 90.5313C48.6915 90.5313 49.5274 89.9068 49.8518 88.9048L52.0228 82.3116H61.6426L63.8136 88.9048C64.2503 90.2118 65.5105 90.8653 66.6334 90.3715C67.7563 89.8632 68.3178 88.3965 67.8936 87.0895L58.8602 59.7002ZM53.6947 77.2142L56.8265 67.7021L59.9582 77.1997H53.6947V77.2142Z" fill="white"/>
<path d="M81.1939 72.1605H77.6629V68.0507C77.6629 66.642 76.6897 65.5093 75.4795 65.5093C74.2692 65.5093 73.296 66.642 73.296 68.0507V72.1605H69.765C68.5547 72.1605 67.5815 73.2933 67.5815 74.702C67.5815 76.1106 68.5547 77.2434 69.765 77.2434H73.296V81.3532C73.296 82.7619 74.2692 83.8946 75.4795 83.8946C76.6897 83.8946 77.6629 82.7619 77.6629 81.3532V77.2434H81.1939C82.4042 77.2434 83.3774 76.1106 83.3774 74.702C83.3774 73.2933 82.4042 72.1605 81.1939 72.1605Z" fill="white"/>
</svg>
