<svg width="128" height="128" viewBox="0 0 128 128" fill="none" xmlns="http://www.w3.org/2000/svg">
<circle cx="64" cy="64" r="64" fill="#686DE0"/>
<path d="M108 48.0645H85.9355V32.129C85.9355 30.1018 84.2853 28.4516 82.2581 28.4516H71.0002C70.4926 27.0283 69.1441 26 67.5484 26H50.3871C48.7914 26 47.4429 27.0283 46.9353 28.4516H35.6774C33.6502 28.4516 32 30.1018 32 32.129V98.3226C32 100.35 33.6502 102 35.6774 102H82.2581C84.2853 102 85.9355 100.35 85.9355 98.3226V82.3871H108V48.0645ZM46.9353 35.8065C47.4429 37.2298 48.7914 38.2581 50.3871 38.2581H67.5484C69.1441 38.2581 70.4926 37.2298 71.0002 35.8065H78.5806V48.0645H58.9677V82.3871H78.5806V94.6452H39.3548V35.8065H46.9353ZM83.4839 65.2258C81.4099 65.2258 79.4066 64.4746 77.845 63.1064L63.4568 50.5161H103.512L89.1227 63.1064C87.5611 64.4746 85.5578 65.2258 83.4839 65.2258ZM61.4194 51.9921L76.232 64.9523C76.4121 65.1103 76.6037 65.2551 76.7922 65.4L61.4194 78.5062V51.9921ZM63.5202 79.9355L79.0206 66.7216C80.4158 67.3416 81.9319 67.6774 83.4839 67.6774C85.0359 67.6774 86.552 67.3416 87.9484 66.7216L103.448 79.9355H63.5202ZM90.1755 65.4C90.3653 65.2551 90.5556 65.1103 90.7358 64.9523L105.548 51.9921V78.5062L90.1755 65.4ZM83.4839 32.129V48.0645H81.0323V33.3548H71.2258V30.9032H82.2581C82.9344 30.9032 83.4839 31.4527 83.4839 32.129ZM49.1613 29.6774C49.1613 29.0011 49.7107 28.4516 50.3871 28.4516H67.5484C68.2247 28.4516 68.7742 29.0011 68.7742 29.6774V34.5806C68.7742 35.257 68.2247 35.8065 67.5484 35.8065H50.3871C49.7107 35.8065 49.1613 35.257 49.1613 34.5806V29.6774ZM83.4839 98.3226C83.4839 98.9989 82.9344 99.5484 82.2581 99.5484H35.6774C35.0011 99.5484 34.4516 98.9989 34.4516 98.3226V32.129C34.4516 31.4527 35.0011 30.9032 35.6774 30.9032H46.7097V33.3548H36.9032V97.0968H81.0323V82.3871H83.4839V98.3226Z" fill="white"/>
<path d="M56.5163 46.145L58.777 42.5939L56.7073 41.2771L53.9492 45.6129H41.8066V60.3226H56.5163V46.145ZM44.2583 57.871V48.0645H52.3888L48.8 53.7058L46.1646 51.9478L44.8047 53.9877L49.5242 57.133L54.0647 49.9978V57.871H44.2583Z" fill="white"/>
<path d="M56.5163 68.2095L58.777 64.6583L56.7073 63.3416L53.9492 67.6774H41.8066V82.387H56.5163V68.2095ZM44.2583 79.9354V70.129H52.3888L48.8 75.7702L46.1646 74.0123L44.8047 76.0521L49.5242 79.1974L54.0647 72.0623V79.9354H44.2583Z" fill="white"/>
<path d="M73.6777 89.7419H76.1293V92.1936H73.6777V89.7419Z" fill="white"/>
<path d="M41.8066 89.7419H71.226V92.1936H41.8066V89.7419Z" fill="white"/>
<path d="M41.8066 84.8389H76.1292V87.2905H41.8066V84.8389Z" fill="white"/>
</svg>
