<svg width="128" height="128" viewBox="0 0 128 128" fill="none" xmlns="http://www.w3.org/2000/svg">
<circle cx="64" cy="64" r="64" fill="#686DE0"/>
<path d="M75.2132 34.7213H70.2296C70.2296 32.6572 68.556 30.9836 66.4919 30.9836H62.7542V29.7377C62.7542 27.6736 61.0806 26 59.0165 26H49.0493C46.9851 26 45.3116 27.6736 45.3116 29.7377V30.9836H41.5739C39.5097 30.9836 37.8362 32.6572 37.8362 34.7213H32.8526C29.4136 34.7256 26.6273 37.5118 26.623 40.9508V59.6393C26.623 60.3274 27.1809 60.8852 27.8689 60.8852C28.557 60.8852 29.1149 60.3274 29.1149 59.6393V40.9508C29.1149 38.8867 30.7884 37.2131 32.8526 37.2131H37.8362V39.7049H32.8526C32.1645 39.7049 31.6067 40.2628 31.6067 40.9508V95.7705C31.6067 96.4585 32.1645 97.0164 32.8526 97.0164H75.2132C75.9013 97.0164 76.4591 96.4585 76.4591 95.7705V40.9508C76.4591 40.2628 75.9013 39.7049 75.2132 39.7049H70.2296V37.2131H75.2132C77.2773 37.2131 78.9509 38.8867 78.9509 40.9508V95.7705C78.9509 97.8346 77.2773 99.5082 75.2132 99.5082H32.8526C30.7884 99.5082 29.1149 97.8346 29.1149 95.7705V80.8197C29.1149 80.1316 28.557 79.5738 27.8689 79.5738C27.1809 79.5738 26.623 80.1316 26.623 80.8197V95.7705C26.6273 99.2095 29.4136 101.996 32.8526 102H75.2132C78.6522 101.996 81.4385 99.2095 81.4427 95.7705V40.9508C81.4385 37.5118 78.6522 34.7256 75.2132 34.7213ZM47.8034 29.7377C47.8034 29.0497 48.3612 28.4918 49.0493 28.4918H59.0165C59.7045 28.4918 60.2624 29.0497 60.2624 29.7377V30.9836H47.8034V29.7377ZM73.9673 42.1967V94.5246H34.0985V42.1967H37.8362C37.8362 44.2609 39.5097 45.9344 41.5739 45.9344H56.5247C57.2127 45.9344 57.7706 45.3766 57.7706 44.6885C57.7706 44.0005 57.2127 43.4426 56.5247 43.4426H41.5739C40.8858 43.4426 40.328 42.8848 40.328 42.1967V34.7213C40.328 34.0333 40.8858 33.4754 41.5739 33.4754H66.4919C67.1799 33.4754 67.7378 34.0333 67.7378 34.7213V42.1967C67.7378 42.8848 67.1799 43.4426 66.4919 43.4426C65.8039 43.4426 65.246 44.0005 65.246 44.6885C65.246 45.3766 65.8039 45.9344 66.4919 45.9344C68.556 45.9344 70.2296 44.2609 70.2296 42.1967H73.9673Z" fill="white"/>
<path d="M65.2456 38.459C65.2456 37.771 64.6877 37.2131 63.9997 37.2131H44.0652C43.3772 37.2131 42.8193 37.771 42.8193 38.459C42.8193 39.1471 43.3772 39.7049 44.0652 39.7049H63.9997C64.6877 39.7049 65.2456 39.1471 65.2456 38.459Z" fill="white"/>
<path d="M65.4848 75.3828C64.9981 74.8962 64.2097 74.8962 63.723 75.3828L57.5574 81.5497L54.9135 78.907C54.6008 78.5834 54.1373 78.4532 53.7017 78.5675C53.2661 78.6813 52.926 79.0214 52.8123 79.457C52.6979 79.8931 52.8281 80.3561 53.1517 80.6688L56.6765 84.1924C57.1632 84.6784 57.9516 84.6784 58.4383 84.1924L65.4848 77.144C65.9715 76.6579 65.9715 75.8689 65.4848 75.3828Z" fill="white"/>
<path d="M59.0166 67.1147C52.1356 67.1147 46.5576 72.6927 46.5576 79.5738C46.5576 86.4548 52.1356 92.0328 59.0166 92.0328C59.7047 92.0328 60.2625 91.4749 60.2625 90.7869C60.2625 90.0988 59.7047 89.541 59.0166 89.541C54.2618 89.541 50.1688 86.1817 49.2411 81.518C48.3139 76.8544 50.81 72.1847 55.2029 70.3652C59.5964 68.5456 64.6627 70.0829 67.3048 74.0366C69.9463 77.9902 69.4273 83.2598 66.065 86.6221C65.5923 87.1106 65.5996 87.8875 66.0796 88.3681C66.5602 88.8487 67.3377 88.856 67.8262 88.3833C71.3899 84.8202 72.4557 79.4612 70.5272 74.8061C68.5988 70.1504 64.0556 67.1147 59.0166 67.1147Z" fill="white"/>
<path d="M49.0496 53.4098H61.5086C62.1967 53.4098 62.7545 52.8519 62.7545 52.1639C62.7545 51.4758 62.1967 50.918 61.5086 50.918H49.0496C48.3616 50.918 47.8037 51.4758 47.8037 52.1639C47.8037 52.8519 48.3616 53.4098 49.0496 53.4098Z" fill="white"/>
<path d="M39.0818 59.6393H61.5081C62.1961 59.6393 62.754 59.0814 62.754 58.3934C62.754 57.7053 62.1961 57.1475 61.5081 57.1475H39.0818C38.3938 57.1475 37.8359 57.7053 37.8359 58.3934C37.8359 59.0814 38.3938 59.6393 39.0818 59.6393Z" fill="white"/>
<path d="M39.0818 65.8688H50.295C50.983 65.8688 51.5409 65.3109 51.5409 64.6229C51.5409 63.9348 50.983 63.377 50.295 63.377H39.0818C38.3938 63.377 37.8359 63.9348 37.8359 64.6229C37.8359 65.3109 38.3938 65.8688 39.0818 65.8688Z" fill="white"/>
<path d="M44.0654 69.6064H39.0818C38.3938 69.6064 37.8359 70.1643 37.8359 70.8523C37.8359 71.5404 38.3938 72.0983 39.0818 72.0983H44.0654C44.7535 72.0983 45.3113 71.5404 45.3113 70.8523C45.3113 70.1643 44.7535 69.6064 44.0654 69.6064Z" fill="white"/>
<path d="M41.5736 75.8362H39.0818C38.3938 75.8362 37.8359 76.394 37.8359 77.0821C37.8359 77.7701 38.3938 78.328 39.0818 78.328H41.5736C42.2617 78.328 42.8195 77.7701 42.8195 77.0821C42.8195 76.394 42.2617 75.8362 41.5736 75.8362Z" fill="white"/>
<path d="M66.492 59.6393H68.9838C69.6718 59.6393 70.2297 59.0814 70.2297 58.3934C70.2297 57.7053 69.6718 57.1475 68.9838 57.1475H66.492C65.8039 57.1475 65.2461 57.7053 65.2461 58.3934C65.2461 59.0814 65.8039 59.6393 66.492 59.6393Z" fill="white"/>
<path d="M70.2291 52.1639C70.2291 52.8519 69.6713 53.4098 68.9832 53.4098C68.2952 53.4098 67.7373 52.8519 67.7373 52.1639C67.7373 51.4758 68.2952 50.918 68.9832 50.918C69.6713 50.918 70.2291 51.4758 70.2291 52.1639Z" fill="white"/>
<path d="M100.131 45.9344H96.393V42.1967C96.393 41.5086 95.8351 40.9508 95.1471 40.9508H90.1635V37.213C90.1635 36.525 90.7213 35.9671 91.4094 35.9671C92.0974 35.9671 92.6553 36.525 92.6553 37.213C92.6553 37.9011 93.2131 38.4589 93.9012 38.4589C94.5892 38.4589 95.1471 37.9011 95.1471 37.213C95.1471 35.1489 93.4735 33.4753 91.4094 33.4753C89.3453 33.4753 87.6717 35.1489 87.6717 37.213V40.9508C86.9836 40.9508 86.4258 41.5086 86.4258 42.1967V78.3278C86.4258 78.36 86.4422 78.3886 86.4446 78.4215C86.4471 78.4537 86.4343 78.4762 86.4379 78.5048L87.6717 87.1361V90.7868C87.6717 92.8509 89.3453 94.5245 91.4094 94.5245C93.4735 94.5245 95.1471 92.8509 95.1471 90.7868V87.1361L96.3808 78.5048C96.3808 78.4762 96.3717 78.4489 96.3741 78.4215C96.3766 78.3941 96.393 78.36 96.393 78.3278V53.4098H98.8848V64.6229C98.8848 65.3109 99.4427 65.8688 100.131 65.8688C100.819 65.8688 101.377 65.3109 101.377 64.6229V47.1803C101.377 46.4922 100.819 45.9344 100.131 45.9344ZM93.9012 43.4426V45.9344H88.9176V43.4426H93.9012ZM92.8208 85.8032H89.998L89.108 79.5737H93.7108L92.8208 85.8032ZM88.9176 48.4262H93.9012V50.918H88.9176V48.4262ZM92.6553 90.7868C92.6553 91.4749 92.0974 92.0327 91.4094 92.0327C90.7213 92.0327 90.1635 91.4749 90.1635 90.7868V88.295H92.6553V90.7868ZM93.9012 77.0819H88.9176V53.4098H93.9012V77.0819ZM96.393 48.4262H98.8848V50.918H96.393V48.4262Z" fill="white"/>
</svg>
