<svg width="34" height="44" viewBox="0 0 34 44" fill="none" xmlns="http://www.w3.org/2000/svg">
<path d="M12.625 18.141V15.8195C12.5708 14.9573 12.252 14.8052 11.6562 14.7555C11.1745 14.7153 4.50441 14.7401 1.96875 14.7511C1.17768 14.74 1.02525 15.0347 1 15.8195V18.141M12.625 18.141H9.42812M12.625 18.141H27.5437M1 18.141H7.68437M1 18.141H9.42812M1 18.141C1.99772 23.7009 2.83941 25.1336 4.77812 25.2988M7.68437 18.141H7.39375V13.885V3.92201C7.52292 3.18043 8.18812 1.60054 9.81562 1.21363C11.4431 0.826723 21.4083 1.05242 26.1875 1.21363C27.1562 1.31036 29.1131 1.98746 29.1906 3.92201C29.2681 5.85656 29.2229 14.2074 29.1906 18.141H27.5437M7.68437 18.141H9.42812M9.42812 23.0741C9.42812 21.1476 9.42812 18.141 9.42812 18.141M9.42812 23.0741H6.52187C5.38663 23.4749 4.95164 23.9189 4.77812 25.2988M9.42812 23.0741C15.2352 23.0741 23.3667 23.0741 27.5437 23.0741M30.2562 27.6203C31.4528 27.1743 31.8678 26.7075 32 25.3956C31.8864 24.0017 31.4654 23.522 30.2562 23.0741C30.2562 23.0741 29.2174 23.0741 27.5437 23.0741M30.2562 27.6203H6.52187M30.2562 27.6203L31.0069 38.4538M6.52187 27.6203C5.24817 27.0032 4.86701 26.5321 4.77812 25.2988M6.52187 27.6203L5.70301 38.4538M5.35937 43L5.70301 38.4538M31.3219 43L31.0069 38.4538M5.70301 38.4538H31.0069M27.5437 23.0741V18.141" stroke="white" stroke-width="2"/>
</svg>
