<svg width="65" height="65" viewBox="0 0 65 65" fill="none" xmlns="http://www.w3.org/2000/svg">
<circle cx="32.5" cy="32.5" r="32.5" fill="#40407A"/>
<g clip-path="url(#clip0)">
<path d="M21.9596 30.1097H28.811C29.1024 30.1097 29.338 29.8736 29.338 29.5827C29.338 29.2918 29.1024 29.0557 28.811 29.0557H21.9596C21.6682 29.0557 21.4326 29.2918 21.4326 29.5827C21.4326 29.8736 21.6682 30.1097 21.9596 30.1097Z" fill="white"/>
<path d="M35.6623 32.2178H21.9596C21.6682 32.2178 21.4326 32.4539 21.4326 32.7448C21.4326 33.0357 21.6682 33.2718 21.9596 33.2718H35.6623C35.9538 33.2718 36.1894 33.0357 36.1894 32.7448C36.1894 32.4539 35.9538 32.2178 35.6623 32.2178Z" fill="white"/>
<path d="M35.6623 35.3804H21.9596C21.6682 35.3804 21.4326 35.6165 21.4326 35.9074C21.4326 36.1983 21.6682 36.4344 21.9596 36.4344H35.6623C35.9538 36.4344 36.1894 36.1983 36.1894 35.9074C36.1894 35.6165 35.9538 35.3804 35.6623 35.3804Z" fill="white"/>
<path d="M45.1868 18.0252L27.1931 17.9883C25.4697 17.9883 24.0678 19.3902 24.0678 21.1136V23.814L19.8147 23.823C18.0913 23.823 16.6895 25.2249 16.6895 26.9483V38.0901C16.6895 39.8135 18.0913 41.2149 19.8147 41.2149H23.0138V46.4852C23.0138 46.7028 23.1476 46.8983 23.3511 46.9769C23.4127 47.0006 23.477 47.0122 23.5408 47.0122C23.6863 47.0122 23.8291 46.9516 23.9308 46.8398L29.0451 41.2138L37.8074 41.178C39.5308 41.178 40.9327 39.7761 40.9327 38.0533V37.9937L43.7048 41.0431C43.8066 41.1548 43.9494 41.2154 44.0948 41.2154C44.1586 41.2154 44.2229 41.2038 44.2846 41.1801C44.488 41.1016 44.6219 40.906 44.6219 40.6884V35.4181H45.1858C46.9092 35.4181 48.3111 34.0162 48.3111 32.2934V21.1504C48.3111 19.4276 46.9097 18.0257 45.1868 18.0252ZM39.8786 38.0527C39.8786 39.1948 38.9495 40.1234 37.8053 40.1234L28.809 40.1603C28.6614 40.1608 28.5201 40.2235 28.4211 40.3326L24.0678 45.1217V40.6873C24.0678 40.3964 23.8322 40.1603 23.5408 40.1603H19.8147C18.6727 40.1603 17.7435 39.2312 17.7435 38.0896V26.9477C17.7435 25.8057 18.6727 24.8765 19.8158 24.8765L24.5949 24.8665H24.5959L37.8074 24.8391C38.9495 24.8391 39.8786 25.7683 39.8786 26.9103V36.6292V38.0527ZM47.257 32.2923C47.257 33.4344 46.3279 34.363 45.1858 34.363H44.0948C43.8034 34.363 43.5678 34.5991 43.5678 34.89V39.3244L40.9327 36.4258V26.9108C40.9327 25.1875 39.5308 23.7856 37.8064 23.7856L25.1219 23.8114V21.113C25.1219 19.971 26.051 19.0418 27.192 19.0418L45.1853 19.0787H45.1863C46.3284 19.0787 47.2575 20.0078 47.2575 21.1499L47.257 32.2923Z" fill="white"/>
</g>
<defs>
<clipPath id="clip0">
<rect width="31.6216" height="31.6216" fill="white" transform="translate(16.6895 16.689)"/>
</clipPath>
</defs>
</svg>
