<svg width="75" height="79" viewBox="0 0 75 79" fill="none" xmlns="http://www.w3.org/2000/svg">
<path d="M17.7503 25.0166H29.6003C30.3284 25.0166 30.9169 24.4281 30.9169 23.7C30.9169 22.9719 30.3284 22.3833 29.6003 22.3833H17.7503C17.0221 22.3833 16.4336 22.9719 16.4336 23.7C16.4336 24.4281 17.0221 25.0166 17.7503 25.0166Z" fill="#393838" fill-opacity="0.75"/>
<path d="M17.7503 34.2334H24.3336C25.0617 34.2334 25.6503 33.6449 25.6503 32.9168C25.6503 32.1886 25.0617 31.6001 24.3336 31.6001H17.7503C17.0221 31.6001 16.4336 32.1886 16.4336 32.9168C16.4336 33.6449 17.0221 34.2334 17.7503 34.2334Z" fill="#393838" fill-opacity="0.75"/>
<path d="M34.8674 34.2334H44.0841C44.8122 34.2334 45.4008 33.6449 45.4008 32.9168C45.4008 32.1886 44.8122 31.6001 44.0841 31.6001H34.8674C34.1393 31.6001 33.5508 32.1886 33.5508 32.9168C33.5508 33.6449 34.1393 34.2334 34.8674 34.2334Z" fill="#393838" fill-opacity="0.75"/>
<path d="M30.5357 33.8517C30.7727 33.6016 30.9175 33.2592 30.9175 32.9169C30.9175 32.5733 30.7727 32.2309 30.5357 31.9821C30.0353 31.4949 29.1663 31.4949 28.666 31.9821C28.4277 32.2309 28.2842 32.5733 28.2842 32.9169C28.2842 33.2592 28.4277 33.6016 28.666 33.8517C28.9149 34.1006 29.244 34.2336 29.6008 34.2336C29.9432 34.2336 30.2855 34.0887 30.5357 33.8517Z" fill="#393838" fill-opacity="0.75"/>
<path d="M49.3508 34.2336C49.7063 34.2336 50.0355 34.0887 50.2857 33.8517C50.5227 33.6016 50.6675 33.2592 50.6675 32.9169C50.6675 32.5733 50.5227 32.2309 50.2857 31.9821C49.7853 31.4949 48.9163 31.4949 48.416 31.9821C48.1777 32.2309 48.0342 32.5733 48.0342 32.9169C48.0342 33.2592 48.1777 33.6016 48.416 33.8517C48.6649 34.1006 48.994 34.2336 49.3508 34.2336Z" fill="#393838" fill-opacity="0.75"/>
<path d="M21.7002 42.1336C21.7002 42.8617 22.2887 43.4502 23.0169 43.4502H32.2335C32.9616 43.4502 33.5502 42.8617 33.5502 42.1336C33.5502 41.4054 32.9616 40.8169 32.2335 40.8169H23.0169C22.2887 40.8169 21.7002 41.4054 21.7002 42.1336Z" fill="#393838" fill-opacity="0.75"/>
<path d="M18.6851 43.0681C18.9339 42.8179 19.0669 42.4756 19.0669 42.1332C19.0669 41.7896 18.9339 41.4472 18.6851 41.1984C18.1848 40.7112 17.3158 40.7112 16.8154 41.1984C16.5653 41.4472 16.4336 41.7764 16.4336 42.1332C16.4336 42.4756 16.5771 42.8179 16.8154 43.0681C17.0643 43.3051 17.4079 43.4499 17.7503 43.4499C18.0926 43.4499 18.4349 43.3051 18.6851 43.0681Z" fill="#393838" fill-opacity="0.75"/>
<path d="M25.0249 48.8972C22.1414 50.3982 21.171 53.2698 20.8168 56.2468C20.2717 55.7899 19.7266 55.3344 19.1828 54.8775C17.8925 53.7965 16.0202 55.649 17.3211 56.7406C18.5522 57.7715 19.7846 58.8038 21.0156 59.836C21.882 60.5615 23.2224 60.1033 23.2632 58.9052C23.3593 56.0533 23.4936 52.6615 26.3547 51.1724C27.8584 50.3876 26.5285 48.1138 25.0249 48.8972Z" fill="#393838" fill-opacity="0.75"/>
<path d="M33.7811 54.148C31.9575 54.5707 29.8824 56.8906 28.5987 54.2876C27.8495 52.7682 25.5769 54.1006 26.3248 55.6161C27.0068 56.9973 28.2998 57.965 29.839 58.1599C30.6211 58.2587 31.3281 58.1481 32.0615 57.8623C32.6 57.653 34.6119 56.1401 35.0464 56.9183C35.8732 58.3982 38.1484 57.0723 37.3203 55.5898C36.6132 54.3231 35.182 53.8228 33.7811 54.148Z" fill="#393838" fill-opacity="0.75"/>
<path d="M70.4369 0H65.132C63.4217 0 61.9773 1.10468 61.4388 2.63333H48.0338H40.1338V1.31667C40.1338 0.58855 39.5452 0 38.8171 0H26.9671C26.239 0 25.6505 0.58855 25.6505 1.31667V2.63333H17.7505H0.633789V79H65.1505V73.0961L66.4671 75.4002V77.6833C66.4671 78.4115 67.0557 79 67.7838 79C68.5119 79 69.1005 78.4115 69.1005 77.6833V75.4002L74.3671 66.1836V17.1167V9.21667V3.93025C74.3671 1.76302 72.6041 0 70.4369 0ZM63.8338 11.85H71.7338V14.4833H63.8338V11.85ZM37.5005 2.63333V3.95V6.58333H28.2838V3.95V2.63333H37.5005ZM25.6505 5.26667V7.9V9.21667H26.9671H38.8171H40.1338V7.9V5.26667H46.7171V9.21667V10.5333H19.0671V9.21667V5.26667H25.6505ZM17.7505 13.1667H48.0338H49.3505V11.85H55.9338V69.7833H9.85046V11.85H16.4338V13.1667H17.7505ZM62.5171 76.3667H3.26712V5.26667H16.4338V9.21667H7.21712V72.4167H58.5671V9.21667H49.3505V5.26667H61.2005V9.21667V17.1167V66.1836L62.5171 68.4877V76.3667ZM64.7857 67.15H70.7818L67.7838 72.3956L65.1505 67.7873L64.7857 67.15ZM71.7338 64.5167H63.8338V17.1167H71.7338V64.5167ZM63.8338 9.21667V3.93025C63.8338 3.2153 64.4158 2.63333 65.1307 2.63333H70.4356C71.1518 2.63333 71.7338 3.2153 71.7338 3.93025V9.21667H63.8338Z" fill="#393838" fill-opacity="0.75"/>
</svg>
