<svg width="18" height="22" viewBox="0 0 18 22" fill="none" xmlns="http://www.w3.org/2000/svg">
<path d="M13.1993 8.06641H4.03268C3.83028 8.06641 3.66602 8.23031 3.66602 8.43307C3.66602 8.63584 3.83028 8.79974 4.03268 8.79974H13.1993C13.4017 8.79974 13.566 8.63584 13.566 8.43307C13.566 8.23031 13.4017 8.06641 13.1993 8.06641Z" fill="black"/>
<path d="M4.03268 5.86712H7.69935C7.90175 5.86712 8.06602 5.70322 8.06602 5.50046C8.06602 5.29769 7.90175 5.13379 7.69935 5.13379H4.03268C3.83028 5.13379 3.66602 5.29769 3.66602 5.50046C3.66602 5.70322 3.83028 5.86712 4.03268 5.86712Z" fill="black"/>
<path d="M13.1993 11H4.03268C3.83028 11 3.66602 11.1639 3.66602 11.3667C3.66602 11.5694 3.83028 11.7333 4.03268 11.7333H13.1993C13.4017 11.7333 13.566 11.5694 13.566 11.3667C13.566 11.1639 13.4017 11 13.1993 11Z" fill="black"/>
<path d="M13.1993 13.9336H4.03268C3.83028 13.9336 3.66602 14.0975 3.66602 14.3003C3.66602 14.503 3.83028 14.6669 4.03268 14.6669H13.1993C13.4017 14.6669 13.566 14.503 13.566 14.3003C13.566 14.0975 13.4017 13.9336 13.1993 13.9336Z" fill="black"/>
<path d="M13.1993 16.8672H4.03268C3.83028 16.8672 3.66602 17.0311 3.66602 17.2339C3.66602 17.4366 3.83028 17.6005 4.03268 17.6005H13.1993C13.4017 17.6005 13.566 17.4366 13.566 17.2339C13.566 17.0311 13.4017 16.8672 13.1993 16.8672Z" fill="black"/>
<path d="M11.8851 0H0V22H17.2333V5.3482L11.8851 0ZM12.1 1.2518L15.9815 5.13333H12.1V1.2518ZM0.733333 21.2667V0.733333H11.3667V5.86667H16.5V21.2667H0.733333Z" fill="black"/>
</svg>
