<svg width="28" height="23" viewBox="0 0 28 23" fill="none" xmlns="http://www.w3.org/2000/svg">
<path d="M27.5172 0H0.482759C0.216276 0 0 0.215793 0 0.482759V21.7241C0 21.9911 0.216276 22.2069 0.482759 22.2069H27.5172C27.7837 22.2069 28 21.9911 28 21.7241V0.482759C28 0.215793 27.7837 0 27.5172 0ZM27.0345 21.2414H0.965517V0.965517H27.0345V21.2414Z" fill="black"/>
<path d="M7.72364 10.6875C9.20619 10.6875 10.4121 9.48158 10.4121 7.99951C10.4121 6.51648 9.20619 5.31055 7.72364 5.31055C6.24109 5.31055 5.03516 6.51648 5.03516 7.99903C5.03516 9.48158 6.24109 10.6875 7.72364 10.6875ZM7.72364 6.27606C8.67371 6.27606 9.4466 7.04944 9.4466 7.99903C9.4466 8.94862 8.67371 9.722 7.72364 9.722C6.77357 9.722 6.00067 8.9491 6.00067 7.99951C6.00067 7.04993 6.77357 6.27606 7.72364 6.27606Z" fill="black"/>
<path d="M3.3795 19.3106C3.49246 19.3106 3.60639 19.271 3.69812 19.1904L11.5734 12.257L16.5467 17.2299C16.7355 17.4187 17.0406 17.4187 17.2294 17.2299C17.4181 17.0412 17.4181 16.7361 17.2294 16.5473L14.9087 14.2267L19.3409 9.37304L24.7773 14.3566C24.9738 14.5366 25.2794 14.5231 25.4594 14.3266C25.6395 14.1301 25.6265 13.8246 25.4295 13.6445L19.6364 8.33414C19.5418 8.24773 19.4158 8.20476 19.2888 8.20766C19.1609 8.21345 19.0402 8.26993 18.9538 8.36455L14.2256 13.5431L11.9359 11.2534C11.7554 11.0733 11.4667 11.0641 11.2755 11.2321L3.0604 18.4653C2.86005 18.6415 2.84074 18.9466 3.01695 19.147C3.11253 19.2556 3.24577 19.3106 3.3795 19.3106Z" fill="black"/>
</svg>
