<svg width="120" height="120" viewBox="0 0 120 120" fill="none" xmlns="http://www.w3.org/2000/svg">
<path d="M15.0008 18.7504V3.75003C15.0008 1.67704 16.6779 0 18.7513 0C20.8238 0 22.5009 1.67704 22.5009 3.75003V18.7504C22.5009 20.8229 20.8238 22.4999 18.7513 22.4999C16.6779 22.5002 15.0008 20.8229 15.0008 18.7504ZM78.7515 22.5002C80.8235 22.5002 82.5015 20.8231 82.5015 18.7507V3.75003C82.5015 1.67704 80.8235 0 78.7515 0C76.6785 0 75.0002 1.67704 75.0002 3.75003V18.7504C75.0002 20.8229 76.6785 22.5002 78.7515 22.5002ZM120 89.9993C120 106.568 106.568 120 90.0005 120C73.434 120 60.0009 106.568 60.0009 89.9993C60.0009 73.4326 73.4337 60 90.0005 60C106.568 60 120 73.4324 120 89.9993ZM112.501 89.9993C112.501 77.5937 102.409 67.4996 90.0008 67.4996C77.594 67.4996 67.5012 77.5935 67.5012 89.9993C67.5012 102.407 77.594 112.5 90.0008 112.5C102.409 112.5 112.501 102.407 112.501 89.9993ZM30.0012 45.0001H15.0008V60H30.0012V45.0001ZM15.0008 82.5002H30.0012V67.4996H15.0008V82.5002ZM37.5007 60H52.5013V45.0001H37.5007V60ZM37.5007 82.5002H52.5013V67.4996H37.5007V82.5002ZM7.50127 89.2536V37.4998H90.0008V52.5002H97.5011V23.2476C97.5011 18.6918 93.8676 14.9999 89.3786 14.9999H86.2508V18.7507C86.2508 22.8811 82.8883 26.2505 78.7517 26.2505C74.6139 26.2505 71.2517 22.8811 71.2517 18.7507V14.9999H26.2506V18.7507C26.2506 22.8811 22.8889 26.2505 18.7516 26.2505C14.6133 26.2505 11.2513 22.8811 11.2513 18.7507V14.9999H8.12722C3.63798 14.9999 0.000976562 18.6918 0.000976562 23.2476V89.2539C0.000976562 93.7945 3.63798 97.5008 8.12722 97.5008H52.5013V89.9995H8.12722C7.78741 89.9993 7.50127 89.6483 7.50127 89.2536ZM75.0002 60V45.0001H60.0011V60H75.0002ZM101.251 89.9993H90.0005V78.7489C90.0005 76.6772 88.3235 75.0001 86.2505 75.0001C84.1775 75.0001 82.5015 76.6772 82.5015 78.7489V93.7505C82.5015 95.8225 84.1775 97.5006 86.2505 97.5006H101.251C103.324 97.5006 105.001 95.8225 105.001 93.7505C105.001 91.6775 103.324 89.9993 101.251 89.9993Z" fill="#393838" fill-opacity="0.75"/>
</svg>
