<svg width="51" height="54" viewBox="0 0 51 54" fill="none" xmlns="http://www.w3.org/2000/svg">
<g clip-path="url(#clip0)">
<path d="M49.5988 45.3586L37.8987 32.9692C36.1553 35.84 33.8482 38.2816 31.1369 40.1276L42.838 52.517C44.706 54.4944 47.7347 54.4944 49.5987 52.517C51.4668 50.5428 51.4668 47.3359 49.5988 45.3586Z" fill="#393838" fill-opacity="0.75"/>
<path d="M38.2498 20.25C38.2498 9.06724 29.6868 0 19.125 0C8.56353 0 3.05176e-05 9.06724 3.05176e-05 20.25C3.05176e-05 31.4328 8.56353 40.4996 19.125 40.4996C29.6868 40.4996 38.2498 31.4328 38.2498 20.25ZM19.125 35.4369C11.2154 35.4369 4.78142 28.625 4.78142 20.2501C4.78142 11.8752 11.2154 5.06275 19.125 5.06275C27.0345 5.06275 33.469 11.8752 33.469 20.2501C33.469 28.625 27.0345 35.4369 19.125 35.4369Z" fill="#393838" fill-opacity="0.75"/>
<path d="M7.96902 20.2498H11.1561C11.1561 15.5975 14.7313 11.8124 19.125 11.8124V8.4375C12.9744 8.4375 7.96902 13.7373 7.96902 20.2498Z" fill="#393838" fill-opacity="0.75"/>
</g>
<defs>
<clipPath id="clip0">
<rect width="51" height="54" fill="white"/>
</clipPath>
</defs>
</svg>
