<svg width="34" height="38" viewBox="0 0 34 38" fill="none" xmlns="http://www.w3.org/2000/svg">
<path d="M23.4588 20.8589H22.6777C24.5712 19.2047 25.7691 16.7737 25.7691 14.0679V2.22656H27.8359V8.60938H30.0625V2.22656H32.0293V0H1.9707V2.22656H7.73396V14.0679C7.73396 16.7737 8.93219 19.2047 10.8253 20.8589H10.5412C5.14008 20.8589 0.746094 25.2532 0.746094 30.6541V38H33.2539V30.6541C33.2539 25.2532 28.8599 20.8589 23.4588 20.8589ZM23.5426 2.22656V9.57422H9.96053V2.22656H23.5426ZM9.96053 14.0679V11.8008H23.5426V14.0679C23.5426 17.8125 20.4961 20.8589 16.7515 20.8589C13.007 20.8589 9.96053 17.8125 9.96053 14.0679ZM21.7051 23.0855L17 29.448L12.2949 23.0855H21.7051ZM31.0273 35.7734H2.97266V30.6541C2.97266 26.8095 5.85443 23.625 9.57117 23.1476L17 33.1926L24.4288 23.1476C28.1456 23.625 31.0273 26.8095 31.0273 30.6541V35.7734Z" fill="white"/>
</svg>
