<svg width="42" height="42" viewBox="0 0 42 42" fill="none" xmlns="http://www.w3.org/2000/svg">
<path d="M40.1183 2.94312H21.9408V1.88418C21.9408 1.36459 21.5196 0.943359 21 0.943359C20.4804 0.943359 20.0592 1.36459 20.0592 1.88418V2.94312H1.88171C0.844101 2.94312 0 3.78722 0 4.82483V6.57079C0 7.60832 0.844101 8.4525 1.88171 8.4525H2.13741V29.5997C2.13741 30.6373 2.98151 31.4815 4.01912 31.4815H20.0592V34.2428L13.0871 39.3569C12.6682 39.6642 12.5775 40.2531 12.8849 40.672C13.1923 41.091 13.7811 41.1815 14.2 40.8742L20.0592 36.5764V40.1156C20.0592 40.6352 20.4804 41.0564 21 41.0564C21.5197 41.0564 21.9408 40.6352 21.9408 40.1156V36.5764L27.8 40.8742C27.9677 40.9972 28.1626 41.0565 28.3557 41.0565C28.6452 41.0565 28.9308 40.9233 29.1151 40.6721C29.4225 40.2531 29.3319 39.6643 28.9129 39.357L21.9408 34.2429V31.4815H37.9809C39.0184 31.4815 39.8626 30.6374 39.8626 29.5998V8.45242H40.1183C41.1558 8.45242 42 7.60832 42 6.5707V4.82483C42 3.78722 41.1559 2.94312 40.1183 2.94312ZM37.9809 29.5996H4.01912V8.45242H37.981V29.5996H37.9809ZM40.1183 6.5707H1.88171V4.82483H40.1184V6.5707H40.1183Z" fill="white"/>
<path d="M20.9817 11.1772C20.5141 11.1772 20.135 11.5563 20.135 12.024V18.5173H13.6416C13.174 18.5173 12.7949 18.8964 12.7949 19.364C12.7949 23.8783 16.4675 27.5508 20.9818 27.5508C25.4961 27.5508 29.1688 23.8782 29.1688 19.364C29.1688 14.8499 25.496 11.1772 20.9817 11.1772ZM20.9817 25.8574C17.6882 25.8574 14.9596 23.3927 14.5433 20.2109H20.9817C21.4494 20.2109 21.8285 19.8318 21.8285 19.3641V12.9257C25.0103 13.342 27.4751 16.0706 27.4751 19.3641C27.4752 22.9445 24.5622 25.8574 20.9817 25.8574Z" fill="white"/>
<path d="M18.1165 10.3013C14.6997 10.3013 11.9199 13.0814 11.9199 16.4986C11.9199 16.9662 12.299 17.3453 12.7666 17.3453H18.1165C18.5841 17.3453 18.9632 16.9662 18.9632 16.4986V11.148C18.9633 10.6803 18.5842 10.3013 18.1165 10.3013ZM17.2698 15.6518H13.6933C14.0381 13.8461 15.4643 12.4196 17.2698 12.0747V15.6518Z" fill="white"/>
</svg>
