<svg width="79" height="79" viewBox="0 0 79 79" fill="none" xmlns="http://www.w3.org/2000/svg">
<g clip-path="url(#clip0)">
<path d="M78.4459 27.1858C77.4685 26.4039 54.5945 8.06287 40.4204 8.06287C26.2463 8.06287 3.37232 26.4039 2.39484 27.1858C2.0202 27.4952 1.792 27.9676 1.792 28.4563C1.792 28.9449 2.02004 29.4173 2.39484 29.7268C2.63917 29.9223 4.28465 31.2416 6.82633 33.0985V42.4482V43.1975L0.358269 51.3093C0.130228 51.6025 -0.000244141 51.9608 -0.000244141 52.3192V69.3082C-0.000244141 70.2041 0.732909 70.9371 1.62895 70.9371H15.135C16.0311 70.9371 16.7642 70.2041 16.7642 69.3082V52.3354C16.7642 51.9771 16.6502 51.6188 16.4221 51.3256L10.0683 43.2138V41.5849V35.4278C12.5446 37.1381 15.4447 39.0439 18.5564 40.8682V60.1214C18.5564 60.773 18.9311 61.3431 19.5176 61.6037C20.039 61.8317 32.5186 67.3536 39.5893 67.4839C39.7685 67.4839 39.9314 67.5002 40.1107 67.5002C48.2893 67.5002 62.2353 61.8806 62.8382 61.62C63.4573 61.3757 63.8482 60.773 63.8482 60.1051V39.8746C71.6847 35.102 77.9083 30.1177 78.3969 29.7105C78.788 29.401 78.9998 28.9286 78.9998 28.44C78.9998 27.9513 78.8207 27.4952 78.4459 27.1858ZM13.5386 52.8893V67.6794H3.29088V52.9056L8.47181 46.4064L13.5386 52.8893ZM60.6551 59.0138H60.6389C57.2176 60.3332 45.976 64.4379 39.72 64.2425H39.7037C34.3436 64.1447 24.8942 60.3332 21.8639 59.0464V42.6926C28.1689 46.0969 34.9627 48.8497 40.4367 48.8497C46.3996 48.8497 53.8939 45.6082 60.6551 41.7967V59.0138ZM40.4204 45.5919C29.4233 45.5919 11.5346 32.6099 6.07689 28.4563C11.5347 24.3027 29.4234 11.3206 40.4204 11.3206C51.4174 11.3206 69.3062 24.3027 74.7639 28.4563C69.3062 32.6262 51.4175 45.5919 40.4204 45.5919Z" fill="#393838" fill-opacity="0.75"/>
<path d="M6.71216 52.3355C6.71216 53.2313 7.4616 53.9969 8.47166 53.9969C9.3677 53.9969 10.1171 53.2313 10.1171 52.3355C10.1171 51.3093 9.3677 50.5437 8.47166 50.5437C7.47789 50.5437 6.71216 51.3093 6.71216 52.3355Z" fill="#393838" fill-opacity="0.75"/>
<path d="M38.7587 16.5819V20.3608C36.5267 21.0938 35.1418 23.2928 35.484 25.7035C35.6958 28.1305 37.8464 30.0363 40.4205 30.0852C41.3491 30.1666 42.0171 30.7856 42.1799 31.714C42.2125 32.5122 41.6423 33.2778 40.7951 33.5384C39.8665 33.8316 38.8564 33.4895 38.3676 32.6914C37.8951 31.9258 36.885 31.6978 36.1193 32.1864C35.3535 32.6588 35.1255 33.6687 35.6142 34.4342C36.3473 35.607 37.4877 36.3889 38.7748 36.7309V40.3307C38.7748 41.2266 39.508 41.9596 40.404 41.9596C41.3 41.9596 42.0332 41.2266 42.0332 40.3307V36.5681C44.2164 35.7536 45.6338 33.6361 45.4545 31.3883C45.4545 31.3557 45.4545 31.3068 45.4382 31.2742C45.0635 28.8147 43.1736 27.0392 40.7135 26.8437H40.6972C40.6809 26.8437 40.6646 26.8437 40.6646 26.8437C40.6483 26.8437 40.632 26.8437 40.5995 26.8437C40.5832 26.8437 40.5669 26.8437 40.5343 26.8437C39.6057 26.8437 38.8074 26.2085 38.7422 25.4103C38.7422 25.3777 38.7422 25.3289 38.7259 25.2963C38.6119 24.547 39.0191 23.6349 39.9805 23.4231C40.0294 23.4068 40.0782 23.4068 40.1271 23.3905C40.9417 23.1299 41.9192 23.6186 42.3428 24.4656C42.7339 25.28 43.7114 25.6058 44.526 25.1986C45.3406 24.8076 45.6664 23.8303 45.2592 23.0159C44.5749 21.6476 43.3856 20.6703 42.0171 20.2631V16.5819C42.0171 15.686 41.2839 14.953 40.3879 14.953C39.4918 14.953 38.7587 15.686 38.7587 16.5819Z" fill="#393838" fill-opacity="0.75"/>
</g>
<defs>
<clipPath id="clip0">
<rect width="79" height="79" fill="white"/>
</clipPath>
</defs>
</svg>
