<svg width="35" height="35" viewBox="0 0 35 35" fill="none" xmlns="http://www.w3.org/2000/svg">
<g clip-path="url(#clip0)">
<path d="M34.2407 17.6173C34.2467 17.331 34.0813 17.0687 33.8206 16.9508L11.2613 6.72922C11.0032 6.6122 10.7004 6.65862 10.4891 6.84745C10.2778 7.03629 10.1979 7.33205 10.2852 7.60155L13.3912 17.189L9.89418 26.6409C9.79879 26.8987 9.85967 27.1874 10.0489 27.3846C10.0548 27.3908 10.0608 27.3968 10.067 27.4028C10.2703 27.6001 10.571 27.6589 10.8337 27.5526L33.7936 18.266C34.0589 18.1587 34.2348 17.9035 34.2407 17.6173Z" fill="#4DBBEB"/>
<path d="M34.3924 17.4724L13.5429 17.0441L10.0459 26.496C9.95051 26.7538 10.0114 27.0425 10.2007 27.2397C10.2065 27.2459 10.2125 27.2519 10.2187 27.2578C10.4221 27.4552 10.7227 27.514 10.9854 27.4077L33.9452 18.1211C34.2106 18.0138 34.3865 17.7586 34.3924 17.4724Z" fill="#2488FF"/>
</g>
<defs>
<clipPath id="clip0">
<rect width="24.4268" height="24.4268" fill="white" transform="matrix(0.69244 0.721475 0.721475 -0.69244 0 16.9141)"/>
</clipPath>
</defs>
</svg>
