<svg width="15" height="15" viewBox="0 0 15 15" fill="none" xmlns="http://www.w3.org/2000/svg">
<path d="M14.328 1.05111H7.83601V0.67292C7.83601 0.487354 7.68557 0.336914 7.5 0.336914C7.31443 0.336914 7.16399 0.487354 7.16399 0.67292V1.05111H0.672041C0.301465 1.05111 0 1.35258 0 1.72315V2.34671C0 2.71726 0.301465 3.01875 0.672041 3.01875H0.763359V10.5713C0.763359 10.9419 1.06482 11.2434 1.4354 11.2434H7.16399V12.2296L4.67396 14.056C4.52435 14.1658 4.49197 14.3761 4.60175 14.5257C4.71155 14.6754 4.92182 14.7077 5.07144 14.5979L7.16399 13.063V14.327C7.16399 14.5126 7.31443 14.663 7.5 14.663C7.6856 14.663 7.83601 14.5126 7.83601 14.327V13.063L9.92856 14.5979C9.98845 14.6418 10.0581 14.663 10.1271 14.663C10.2304 14.663 10.3324 14.6155 10.3983 14.5257C10.508 14.3761 10.4757 14.1658 10.326 14.0561L7.83601 12.2296V11.2434H13.5646C13.9351 11.2434 14.2366 10.9419 14.2366 10.5714V3.01872H14.328C14.6985 3.01872 15 2.71726 15 2.34668V1.72315C15 1.35258 14.6985 1.05111 14.328 1.05111ZM13.5646 10.5713H1.4354V3.01872H13.5646V10.5713H13.5646ZM14.328 2.34668H0.672041V1.72315H14.328V2.34668H14.328Z" fill="white"/>
<path d="M7.49417 3.9917C7.32715 3.9917 7.19177 4.12708 7.19177 4.2941V6.61315H4.87271C4.70569 6.61315 4.57031 6.74854 4.57031 6.91556C4.57031 8.52779 5.88196 9.83941 7.4942 9.83941C9.10644 9.83941 10.4181 8.52776 10.4181 6.91556C10.4181 5.30335 9.10641 3.9917 7.49417 3.9917ZM7.49417 9.23461C6.3179 9.23461 5.3434 8.35436 5.19475 7.21799H7.49417C7.66119 7.21799 7.79657 7.08261 7.79657 6.91559V4.61616C8.93294 4.76481 9.81323 5.73932 9.81323 6.91559C9.81326 8.19431 8.77292 9.23461 7.49417 9.23461Z" fill="white"/>
<path d="M6.46892 3.67871C5.24864 3.67871 4.25586 4.67161 4.25586 5.89203C4.25586 6.05905 4.39124 6.19443 4.55826 6.19443H6.46892C6.63594 6.19443 6.77132 6.05905 6.77132 5.89203V3.98111C6.77135 3.81409 6.63597 3.67871 6.46892 3.67871ZM6.16651 5.58963H4.8892C5.01233 4.94472 5.52172 4.43524 6.16651 4.31208V5.58963Z" fill="white"/>
</svg>
