<svg width="20" height="12" viewBox="0 0 20 12" fill="none" xmlns="http://www.w3.org/2000/svg">
<circle cx="10.1158" cy="2.91074" r="2.53574" stroke="white" stroke-width="0.75"/>
<path d="M6.16572 1.33057C4.67299 1.33057 3.46289 2.54066 3.46289 4.0334C3.46289 5.52613 4.67299 6.73623 6.16572 6.73623C6.70156 6.73623 7.20099 6.5803 7.62109 6.31133" stroke="white" stroke-width="0.75"/>
<path d="M14.2327 1.33057C15.7254 1.33057 16.9355 2.54066 16.9355 4.0334C16.9355 5.52613 15.7254 6.73623 14.2327 6.73623C13.6969 6.73623 13.1974 6.5803 12.7773 6.31133" stroke="white" stroke-width="0.75"/>
<path d="M4.63281 11.3934C5.56058 9.28754 7.66614 7.81738 10.1151 7.81738C12.564 7.81738 14.6696 9.28754 15.5974 11.3934" stroke="white" stroke-width="0.75"/>
<path d="M1 11.1438C1.8587 9.81372 3.23017 8.84577 4.8348 8.51953" stroke="white" stroke-width="0.75"/>
<path d="M19.0137 11.1442C18.2502 9.79534 17.0307 8.81375 15.6039 8.48291" stroke="white" stroke-width="0.75"/>
</svg>
