<svg width="16" height="16" viewBox="0 0 16 16" fill="none" xmlns="http://www.w3.org/2000/svg">
<path d="M13.7346 0.533333H12.9346V0.266667C12.9346 0.1194 12.8152 0 12.668 0C12.5207 0 12.4013 0.1194 12.4013 0.266667V0.533333H11.868V0.266667C11.868 0.1194 11.7486 0 11.6013 0C11.454 0 11.3346 0.1194 11.3346 0.266667V0.533333H10.8013V0.266667C10.8013 0.1194 10.6819 0 10.5346 0C10.3874 0 10.268 0.1194 10.268 0.266667V0.533333H9.73463V0.266667C9.73463 0.1194 9.61524 0 9.46797 0C9.3207 0 9.2013 0.1194 9.2013 0.266667V0.533333H5.46797V0.266667C5.46797 0.1194 5.34857 0 5.2013 0C5.05404 0 4.93464 0.1194 4.93464 0.266667V0.533333H4.4013V0.266667C4.4013 0.1194 4.2819 0 4.13464 0C3.98737 0 3.86797 0.1194 3.86797 0.266667V0.533333H3.33464V0.266667C3.33464 0.1194 3.21524 0 3.06797 0C2.9207 0 2.8013 0.1194 2.8013 0.266667V0.533333H2.26797V0.266667C2.26797 0.1194 2.14857 0 2.0013 0C1.85404 0 1.73464 0.1194 1.73464 0.266667V0.533333H0.934635C0.787369 0.533333 0.667969 0.652733 0.667969 0.8V13.3333C0.667969 13.4806 0.787369 13.6 0.934635 13.6H8.6813C8.82857 13.6004 8.94827 13.4813 8.94864 13.334C8.94864 13.3276 8.94843 13.3211 8.94797 13.3147L8.94584 13.2837C8.93997 13.2117 8.93464 13.1397 8.93464 13.0667C8.9355 12.8027 8.96663 12.5398 9.02743 12.2829C9.08677 12.0273 9.17544 11.7793 9.2917 11.544C9.30317 11.5205 9.31357 11.4968 9.32557 11.4736C9.36103 11.4059 9.39943 11.3403 9.43917 11.2749C9.4517 11.2544 9.46397 11.2333 9.47703 11.2131C9.52024 11.1453 9.56573 11.0793 9.61357 11.0149C9.62344 11.0013 9.63357 10.9883 9.6437 10.9744C9.69703 10.9047 9.7524 10.8372 9.80984 10.7717L9.81783 10.7629C10.1988 10.3378 10.6776 10.0119 11.2128 9.81333L11.2597 9.796C11.3317 9.77067 11.4048 9.74827 11.4786 9.72747C11.512 9.71813 11.5458 9.7096 11.5797 9.7008C11.6421 9.68533 11.7048 9.67093 11.7682 9.65893C11.8216 9.64907 11.877 9.6416 11.9317 9.63413C11.98 9.6272 12.0277 9.61947 12.0765 9.61493C12.1832 9.6048 12.2917 9.5984 12.4013 9.5984C12.4736 9.5984 12.5448 9.604 12.6146 9.6088L12.648 9.6112C12.6501 9.6112 12.6525 9.6112 12.6546 9.6112C12.9913 9.6365 13.3225 9.7106 13.6378 9.8312C13.7751 9.88467 13.9296 9.81677 13.9831 9.67953C13.9951 9.64873 14.0013 9.616 14.0013 9.58293V0.8C14.0013 0.652733 13.8819 0.533333 13.7346 0.533333ZM8.94903 11.0568C8.9397 11.072 8.92984 11.0864 8.9213 11.1016C8.8829 11.1691 8.84824 11.2387 8.81463 11.3085C8.7957 11.3469 8.7765 11.3851 8.7589 11.4243C8.72983 11.4885 8.70263 11.5541 8.67704 11.6203C8.67437 11.6269 8.67143 11.6331 8.66877 11.6397V10.4H9.42904C9.24727 10.6022 9.08647 10.8222 8.94903 11.0568ZM10.268 9.68907C10.1762 9.7472 10.0877 9.80907 10.0013 9.87413V9.86667H8.66797V8.26667H10.268V9.68907ZM10.268 7.73333H8.66797V6.13333H10.268V7.73333ZM10.268 5.6H8.66797V4H10.268V5.6ZM12.4013 6.13333V7.73333H10.8013V6.13333H12.4013ZM10.8013 5.6V4H12.4013V5.6H10.8013ZM12.4018 9.06667C12.277 9.06667 12.1538 9.07387 12.0317 9.08533C11.9784 9.09013 11.9285 9.0984 11.8768 9.10507C11.8114 9.11387 11.7464 9.12293 11.6821 9.13493C11.6178 9.14693 11.5472 9.1616 11.4805 9.17787C11.4397 9.18773 11.3989 9.19813 11.3584 9.20933C11.2784 9.2312 11.1984 9.25493 11.1184 9.2816C11.1082 9.28533 11.0984 9.28933 11.0882 9.2928C10.9912 9.32667 10.8952 9.36213 10.8018 9.40293V8.26667H12.4018V9.06667ZM13.468 9.21387C13.2929 9.1648 13.1147 9.1278 12.9346 9.1032V3.73333C12.9346 3.58607 12.8152 3.46667 12.668 3.46667H2.0013C1.85404 3.46667 1.73464 3.58607 1.73464 3.73333V12.2667C1.73464 12.4139 1.85404 12.5333 2.0013 12.5333H8.44103C8.4159 12.71 8.40264 12.8882 8.4013 13.0667H1.2013V2.93333H13.468V9.21387ZM6.53464 9.86667V8.26667H8.13463V9.86667H6.53464ZM8.13463 10.4V12H6.53464V10.4H8.13463ZM6.53464 7.73333V6.13333H8.13463V7.73333H6.53464ZM6.53464 5.6V4H8.13463V5.6H6.53464ZM4.4013 9.86667V8.26667H6.0013V9.86667H4.4013ZM6.0013 10.4V12H4.4013V10.4H6.0013ZM4.4013 7.73333V6.13333H6.0013V7.73333H4.4013ZM4.4013 5.6V4H6.0013V5.6H4.4013ZM2.26797 9.86667V8.26667H3.86797V9.86667H2.26797ZM3.86797 10.4V12H2.26797V10.4H3.86797ZM2.26797 7.73333V6.13333H3.86797V7.73333H2.26797ZM2.26797 5.6V4H3.86797V5.6H2.26797ZM13.468 2.4H1.2013V1.06667H1.73464V1.33333C1.73464 1.4806 1.85404 1.6 2.0013 1.6C2.14857 1.6 2.26797 1.4806 2.26797 1.33333V1.06667H2.8013V1.33333C2.8013 1.4806 2.9207 1.6 3.06797 1.6C3.21524 1.6 3.33464 1.4806 3.33464 1.33333V1.06667H3.86797V1.33333C3.86797 1.4806 3.98737 1.6 4.13464 1.6C4.2819 1.6 4.4013 1.4806 4.4013 1.33333V1.06667H4.93464V1.33333C4.93464 1.4806 5.05404 1.6 5.2013 1.6C5.34857 1.6 5.46797 1.4806 5.46797 1.33333V1.06667H9.2013V1.33333C9.2013 1.4806 9.3207 1.6 9.46797 1.6C9.61524 1.6 9.73463 1.4806 9.73463 1.33333V1.06667H10.268V1.33333C10.268 1.4806 10.3874 1.6 10.5346 1.6C10.6819 1.6 10.8013 1.4806 10.8013 1.33333V1.06667H11.3346V1.33333C11.3346 1.4806 11.454 1.6 11.6013 1.6C11.7486 1.6 11.868 1.4806 11.868 1.33333V1.06667H12.4013V1.33333C12.4013 1.4806 12.5207 1.6 12.668 1.6C12.8152 1.6 12.9346 1.4806 12.9346 1.33333V1.06667H13.468V2.4Z" fill="white"/>
<path d="M12.4001 10.1333C10.7801 10.1333 9.4668 11.4466 9.4668 13.0666C9.4668 14.6867 10.7801 16 12.4001 16C14.0202 16 15.3335 14.6867 15.3335 13.0666C15.3316 11.4474 14.0194 10.1352 12.4001 10.1333ZM12.4001 15.4666C11.0747 15.4666 10.0001 14.3921 10.0001 13.0666C10.0001 11.7411 11.0747 10.6666 12.4001 10.6666C13.7256 10.6666 14.8001 11.7411 14.8001 13.0666C14.7987 14.3915 13.725 15.4652 12.4001 15.4666Z" fill="white"/>
<path d="M13.9147 11.5451C13.8113 11.4453 13.6475 11.4453 13.5441 11.5451L12.3993 12.6899L11.7879 12.0784C11.6819 11.9761 11.5131 11.979 11.4108 12.085C11.311 12.1883 11.311 12.3522 11.4108 12.4555L12.2108 13.2555C12.3149 13.3596 12.4837 13.3596 12.5879 13.2555L13.9212 11.9222C14.0235 11.8162 14.0206 11.6474 13.9147 11.5451Z" fill="white"/>
</svg>
