<svg width="15" height="15" viewBox="0 0 15 15" fill="none" xmlns="http://www.w3.org/2000/svg">
<g clip-path="url(#clip0)">
<path d="M14.8948 5.16169C14.7092 5.01324 10.3661 1.53076 7.6748 1.53076C4.98353 1.53076 0.640361 5.01324 0.454763 5.16169C0.383629 5.22046 0.340299 5.31015 0.340299 5.40293C0.340299 5.49571 0.383598 5.5854 0.454763 5.64417C0.501155 5.68128 0.813588 5.9318 1.29619 6.28437V8.05963V8.2019L0.0680722 9.74211C0.0247732 9.79778 0 9.86582 0 9.93386V13.1596C0 13.3297 0.139206 13.4689 0.30934 13.4689H2.87378C3.04392 13.4689 3.18312 13.3297 3.18312 13.1596V9.93695C3.18312 9.86891 3.16147 9.80087 3.11818 9.7452L1.91174 8.20499V7.89571V6.72664C2.38194 7.05138 2.93258 7.41324 3.52342 7.75963V11.4153C3.52342 11.539 3.59456 11.6473 3.70593 11.6967C3.80493 11.74 6.17446 12.7885 7.51701 12.8132C7.55103 12.8132 7.58196 12.8163 7.61601 12.8163C9.1689 12.8163 11.8169 11.7493 11.9313 11.6998C12.0489 11.6534 12.1231 11.539 12.1231 11.4122V7.57097C13.6111 6.66479 14.7928 5.71839 14.8855 5.64107C14.9598 5.58231 15 5.49262 15 5.39984C15 5.30705 14.966 5.22046 14.8948 5.16169ZM2.57066 10.0421V12.8504H0.624897V10.0452L1.60862 8.81118L2.57066 10.0421ZM11.5168 11.205H11.5138C10.8641 11.4555 8.72966 12.2349 7.54181 12.1978H7.53872C6.52098 12.1792 4.72679 11.4555 4.15141 11.2112V8.10602C5.34857 8.75242 6.63854 9.2751 7.6779 9.2751C8.8101 9.2751 10.2331 8.65963 11.5168 7.93592V11.205ZM7.6748 8.65654C5.58674 8.65654 2.19015 6.19159 1.15389 5.40293C2.19019 4.61427 5.58677 2.14932 7.6748 2.14932C9.76284 2.14932 13.1595 4.61427 14.1957 5.40293C13.1595 6.19468 9.76287 8.65654 7.6748 8.65654Z" fill="white"/>
<path d="M1.27344 9.93689C1.27344 10.107 1.41574 10.2523 1.60752 10.2523C1.77765 10.2523 1.91995 10.107 1.91995 9.93689C1.91995 9.74204 1.77765 9.59668 1.60752 9.59668C1.41883 9.59668 1.27344 9.74204 1.27344 9.93689Z" fill="white"/>
<path d="M7.35884 3.14815V3.86567C6.93504 4.00485 6.67209 4.42237 6.73707 4.8801C6.77727 5.34093 7.18561 5.70279 7.67436 5.71206C7.85068 5.72753 7.97752 5.84505 8.00845 6.02134C8.01463 6.17289 7.90635 6.31825 7.7455 6.36773C7.56918 6.4234 7.3774 6.35846 7.28458 6.20691C7.19486 6.06155 7.00308 6.01825 6.85768 6.11103C6.71229 6.20072 6.66899 6.39248 6.76178 6.53784C6.90098 6.76052 7.11751 6.90897 7.3619 6.97392V7.65743C7.3619 7.82753 7.50111 7.9667 7.67124 7.9667C7.84137 7.9667 7.98058 7.82753 7.98058 7.65743V6.94299C8.39511 6.78835 8.66424 6.38629 8.63019 5.95949C8.63019 5.9533 8.63019 5.94402 8.6271 5.93784C8.55596 5.47083 8.19711 5.13371 7.73 5.0966H7.72691C7.72382 5.0966 7.72073 5.0966 7.72073 5.0966C7.71763 5.0966 7.71454 5.0966 7.70835 5.0966C7.70526 5.0966 7.70217 5.0966 7.69598 5.0966C7.51966 5.0966 7.36809 4.97598 7.35572 4.82443C7.35572 4.81825 7.35572 4.80897 7.35262 4.80278C7.33097 4.66052 7.40829 4.48732 7.59083 4.44711C7.60011 4.44402 7.60939 4.44402 7.61866 4.44093C7.77333 4.39145 7.95893 4.48423 8.03937 4.64505C8.11363 4.79969 8.29923 4.86155 8.4539 4.78423C8.60857 4.71 8.67043 4.52443 8.59311 4.3698C8.46318 4.11 8.23737 3.92444 7.97752 3.84712V3.14815C7.97752 2.97804 7.83831 2.83887 7.66818 2.83887C7.49805 2.83887 7.35884 2.97804 7.35884 3.14815Z" fill="white"/>
</g>
<defs>
<clipPath id="clip0">
<rect width="15" height="15" fill="white"/>
</clipPath>
</defs>
</svg>
