<svg width="13" height="18" viewBox="0 0 13 18" fill="none" xmlns="http://www.w3.org/2000/svg">
<path d="M5.125 7.5299V6.64553C5.10577 6.31705 4.99264 6.25911 4.78125 6.24019C4.61032 6.2249 2.2435 6.23434 1.34375 6.23851C1.06305 6.2343 1.00896 6.34656 1 6.64553V7.5299M5.125 7.5299H3.99063M5.125 7.5299H10.4188M1 7.5299H3.37187M1 7.5299H3.99063M1 7.5299C1.35403 9.64797 1.65269 10.1937 2.34063 10.2567M3.37187 7.5299H3.26875V5.90856V2.11315C3.31458 1.83064 3.55062 1.22878 4.12812 1.08138C4.70562 0.93399 8.24167 1.01997 9.9375 1.08138C10.2812 1.11823 10.9756 1.37618 11.0031 2.11315C11.0306 2.85012 11.0146 6.03138 11.0031 7.5299H10.4188M3.37187 7.5299H3.99063M3.99063 9.40918C3.99063 8.67527 3.99063 7.5299 3.99063 7.5299M3.99063 9.40918H2.95938C2.55655 9.56186 2.40219 9.73099 2.34063 10.2567M3.99063 9.40918C6.0512 9.40918 8.93657 9.40918 10.4188 9.40918M11.3813 11.1411C11.8058 10.9712 11.9531 10.7933 12 10.2935C11.9597 9.76256 11.8103 9.57981 11.3813 9.40918C11.3813 9.40918 11.0126 9.40918 10.4188 9.40918M11.3813 11.1411H2.95938M11.3813 11.1411L11.6476 15.2681M2.95938 11.1411C2.50741 10.906 2.37216 10.7265 2.34063 10.2567M2.95938 11.1411L2.66881 15.2681M2.54688 17L2.66881 15.2681M11.7594 17L11.6476 15.2681M2.66881 15.2681H11.6476M10.4188 9.40918V7.5299" stroke="white" stroke-width="0.75"/>
</svg>
