<svg width="17" height="17" viewBox="0 0 17 17" fill="none" xmlns="http://www.w3.org/2000/svg">
<path d="M11.3895 9.33163H11.04C11.8871 8.59157 12.423 7.50404 12.423 6.29355V0.996094H13.3477V3.85156H14.3438V0.996094H15.2236V0H1.77637V0.996094H4.35467V6.29355C4.35467 7.50404 4.89072 8.59157 5.73766 9.33163H5.61055C3.19424 9.33163 1.22852 11.2975 1.22852 13.7137V17H15.7715V13.7137C15.7715 11.2975 13.8058 9.33163 11.3895 9.33163ZM11.4269 0.996094V4.2832H5.35076V0.996094H11.4269ZM5.35076 6.29355V5.2793H11.4269V6.29355C11.4269 7.96875 10.064 9.33163 8.38885 9.33163C6.71365 9.33163 5.35076 7.96875 5.35076 6.29355ZM10.6049 10.3277L8.5 13.1741L6.3951 10.3277H10.6049ZM14.7754 16.0039H2.22461V13.7137C2.22461 11.9937 3.51382 10.5691 5.17657 10.3555L8.5 14.8493L11.8234 10.3555C13.4862 10.5691 14.7754 11.9937 14.7754 13.7137V16.0039Z" fill="white"/>
</svg>
