<svg width="18" height="18" viewBox="0 0 18 18" fill="none" xmlns="http://www.w3.org/2000/svg">
<path d="M15.2296 1.38463H12.8065V1.03848C12.8065 0.847336 12.6515 0.692332 12.4604 0.692332H10.3829C10.0584 0.260824 9.54488 0 8.9988 0C8.45272 0 7.93923 0.260824 7.61466 0.692297H5.53725C5.3461 0.692297 5.1911 0.847301 5.1911 1.03845V1.38459H2.76802C2.57688 1.38459 2.42188 1.5396 2.42188 1.73074V17.6538C2.42188 17.845 2.57688 18 2.76802 18H15.2296C15.4207 18 15.5757 17.845 15.5757 17.6538V1.73078C15.5757 1.53963 15.4207 1.38463 15.2296 1.38463ZM5.88343 1.38463H7.7999C7.92344 1.38463 8.03763 1.31878 8.0995 1.21184C8.28495 0.891387 8.62952 0.692332 8.9988 0.692332C9.36808 0.692332 9.71268 0.891422 9.89806 1.21184C9.9599 1.31878 10.0741 1.38463 10.1977 1.38463H12.1142V2.76926H5.88343V1.38463ZM14.8834 15.9231H13.1527C12.9615 15.9231 12.8065 16.0781 12.8065 16.2692C12.8065 16.4604 12.9615 16.6154 13.1527 16.6154H14.8834V17.3077H3.11417V2.07693H5.1911V3.11537C5.1911 3.30652 5.3461 3.46152 5.53725 3.46152H12.4603C12.6515 3.46152 12.8065 3.30652 12.8065 3.11537V2.07693H14.8834V15.9231H14.8834Z" fill="white"/>
<path d="M7.14295 4.57805C6.99487 4.45715 6.77684 4.47912 6.6559 4.6272L5.23495 6.36715L4.42836 5.32646C4.31126 5.17536 4.09382 5.14776 3.94271 5.2649C3.79161 5.382 3.76405 5.59945 3.88116 5.75055L4.95423 7.13518C5.01885 7.21853 5.11792 7.26789 5.22339 7.26923C5.22486 7.26923 5.22637 7.26923 5.22782 7.26923C5.33167 7.26923 5.43014 7.22258 5.49592 7.14203L7.19207 5.06511C7.313 4.91706 7.29103 4.69899 7.14295 4.57805Z" fill="white"/>
<path d="M13.8455 4.84619H8.30709C8.11594 4.84619 7.96094 5.0012 7.96094 5.19234C7.96094 5.38348 8.11594 5.53849 8.30709 5.53849H13.8455C14.0367 5.53849 14.1917 5.38348 14.1917 5.19234C14.1917 5.0012 14.0367 4.84619 13.8455 4.84619Z" fill="white"/>
<path d="M10.384 6.23096H8.30709C8.11594 6.23096 7.96094 6.38596 7.96094 6.57711C7.96094 6.76825 8.11594 6.92325 8.30709 6.92325H10.384C10.5752 6.92325 10.7302 6.76825 10.7302 6.57711C10.7302 6.38596 10.5752 6.23096 10.384 6.23096Z" fill="white"/>
<path d="M7.14295 8.73186C6.99487 8.61096 6.77684 8.63293 6.6559 8.78101L5.23495 10.521L4.42836 9.48027C4.31126 9.32916 4.09382 9.30157 3.94271 9.41871C3.79161 9.53581 3.76405 9.75325 3.88116 9.90436L4.95423 11.289C5.01885 11.3723 5.11792 11.4217 5.22339 11.423C5.22486 11.423 5.22637 11.423 5.22782 11.423C5.33167 11.423 5.43014 11.3764 5.49592 11.2958L7.19207 9.21891C7.313 9.07084 7.29103 8.85276 7.14295 8.73186Z" fill="white"/>
<path d="M13.8455 9H8.30709C8.11594 9 7.96094 9.155 7.96094 9.34615C7.96094 9.53729 8.11594 9.6923 8.30709 9.6923H13.8455C14.0367 9.6923 14.1917 9.53729 14.1917 9.34615C14.1917 9.155 14.0367 9 13.8455 9Z" fill="white"/>
<path d="M10.384 10.3848H8.30709C8.11594 10.3848 7.96094 10.5398 7.96094 10.7309C7.96094 10.9221 8.11594 11.0771 8.30709 11.0771H10.384C10.5752 11.0771 10.7302 10.9221 10.7302 10.7309C10.7302 10.5398 10.5752 10.3848 10.384 10.3848Z" fill="white"/>
<path d="M7.14295 12.8857C6.99487 12.7648 6.77684 12.7867 6.6559 12.9348L5.23495 14.6748L4.42836 13.6341C4.31126 13.483 4.09382 13.4554 3.94271 13.5725C3.79161 13.6896 3.76405 13.9071 3.88116 14.0582L4.95423 15.4428C5.01885 15.5261 5.11792 15.5755 5.22339 15.5768C5.22486 15.5768 5.22637 15.5768 5.22782 15.5768C5.33167 15.5768 5.43014 15.5302 5.49592 15.4496L7.19207 13.3727C7.313 13.2246 7.29103 13.0066 7.14295 12.8857Z" fill="white"/>
<path d="M13.8455 13.1538H8.30709C8.11594 13.1538 7.96094 13.3088 7.96094 13.5C7.96094 13.6911 8.11594 13.8461 8.30709 13.8461H13.8455C14.0367 13.8461 14.1917 13.6911 14.1917 13.5C14.1917 13.3088 14.0367 13.1538 13.8455 13.1538Z" fill="white"/>
<path d="M10.384 14.5386H8.30709C8.11594 14.5386 7.96094 14.6936 7.96094 14.8847C7.96094 15.0759 8.11594 15.2309 8.30709 15.2309H10.384C10.5752 15.2309 10.7302 15.0759 10.7302 14.8847C10.7302 14.6936 10.5752 14.5386 10.384 14.5386Z" fill="white"/>
<path d="M12.3604 16.0243C12.296 15.9599 12.2067 15.9229 12.1157 15.9229C12.0246 15.9229 11.9353 15.9599 11.871 16.0243C11.8066 16.0887 11.7695 16.178 11.7695 16.269C11.7695 16.36 11.8066 16.4494 11.871 16.5137C11.9353 16.5781 12.0247 16.6151 12.1157 16.6151C12.2067 16.6151 12.296 16.5781 12.3604 16.5137C12.4248 16.4494 12.4618 16.36 12.4618 16.269C12.4618 16.178 12.4248 16.0886 12.3604 16.0243Z" fill="white"/>
</svg>
