<svg width="17" height="17" viewBox="0 0 17 17" fill="none" xmlns="http://www.w3.org/2000/svg">
<path d="M16.7519 3.72227C16.7508 3.72227 16.7497 3.72227 16.7485 3.72232H14.4821V2.06798C14.4821 1.93091 14.371 1.81982 14.2339 1.81982H1.50545C0.674764 1.82164 0.00181977 2.49459 0 3.32527V13.6748C0.00181977 14.5055 0.674764 15.1785 1.50545 15.1803H15.4946C16.3252 15.1785 16.9982 14.5055 17 13.6748V3.97047C17 3.8334 16.8889 3.72232 16.7519 3.72227ZM1.50545 14.6873C0.948847 14.6855 0.498122 14.2347 0.496302 13.6781V3.3352C0.498122 2.7786 0.948888 2.32787 1.50545 2.32605H13.9858V13.6748C13.9867 14.0479 14.1258 14.4074 14.3762 14.684L1.50545 14.6873ZM16.4872 13.6748C16.4873 14.2263 16.0459 14.6765 15.4946 14.6873C14.9464 14.6965 14.4946 14.2596 14.4854 13.7115C14.4852 13.7004 14.4852 13.6893 14.4854 13.6781V4.22193H16.4872V13.6748Z" fill="white"/>
<path d="M3.85729 3.33864C3.75935 3.34042 3.6804 3.41937 3.67862 3.51731V4.8838L2.59006 3.40151C2.531 3.3221 2.41925 3.30444 2.3386 3.3618C2.29042 3.39716 2.26308 3.45428 2.26581 3.514V5.44627C2.2637 5.54677 2.34348 5.6299 2.44394 5.63201C2.44965 5.63214 2.45532 5.63197 2.46102 5.63156C2.5595 5.62804 2.638 5.5481 2.63969 5.44958V4.06986L3.70509 5.54553L3.72163 5.56538C3.75484 5.60641 3.80451 5.63061 3.85729 5.63156C3.95704 5.62978 4.03749 5.54934 4.03926 5.44958V3.51731C4.03575 3.41884 3.9558 3.34034 3.85729 3.33864Z" fill="white"/>
<path d="M5.89827 5.26392H4.98839V4.6485H5.76262C5.86403 4.63485 5.93521 4.54159 5.92156 4.44018C5.91043 4.35746 5.84538 4.29236 5.76262 4.28124H4.98839V3.67244H5.89827C5.99857 3.66892 6.07856 3.58749 6.08025 3.48715C6.07847 3.3874 5.99803 3.30695 5.89827 3.30518H4.8031C4.7026 3.30518 4.62112 3.38665 4.62112 3.48715V5.44589C4.6193 5.54639 4.69929 5.62932 4.79975 5.63114C4.80087 5.63114 4.80199 5.63118 4.8031 5.63118H5.89827C5.99969 5.61753 6.07086 5.52427 6.05722 5.42286C6.04609 5.3401 5.98099 5.27504 5.89827 5.26392Z" fill="white"/>
<path d="M9.40702 3.34517C9.3138 3.30588 9.20631 3.34856 9.16549 3.44112L8.50375 4.97966L8.07693 3.96058C8.04686 3.89238 7.97941 3.84829 7.90488 3.84809C7.82981 3.84651 7.76149 3.89118 7.73283 3.96058L7.30601 4.97966L6.64427 3.44112C6.59046 3.35625 6.47801 3.33106 6.39314 3.38487C6.32771 3.42635 6.29574 3.50469 6.3134 3.58008L7.29608 5.51566C7.30092 5.52596 7.30646 5.53589 7.31262 5.54544V5.56529C7.31262 5.56529 7.31262 5.56529 7.33579 5.56529C7.34422 5.57394 7.35436 5.58068 7.36556 5.58514H7.38872H7.47144C7.48009 5.58274 7.48927 5.58274 7.49791 5.58514L7.52438 5.56529H7.54423L7.56408 5.54544V5.51566L7.99752 4.48666L8.43427 5.51566C8.43266 5.5255 8.43266 5.5356 8.43427 5.54544V5.56529H8.45743C8.4652 5.57464 8.47559 5.58155 8.48721 5.58514H8.51037H8.58978H8.61625C8.61625 5.58514 8.6361 5.58514 8.64602 5.56529H8.66918V5.54544C8.67651 5.53663 8.68209 5.52654 8.68573 5.51566L9.49966 3.58008C9.53887 3.48963 9.49743 3.3845 9.40702 3.34517Z" fill="white"/>
<path d="M11.8047 4.64221C11.7224 4.5214 11.6077 4.4262 11.4738 4.36759C11.327 4.30055 11.1726 4.25166 11.0139 4.22201C10.868 4.20059 10.7275 4.15116 10.6003 4.07643C10.5654 4.05364 10.5351 4.02444 10.511 3.9904C10.4939 3.96261 10.4858 3.93027 10.4878 3.89776C10.4934 3.81198 10.5403 3.73427 10.6136 3.68931C10.7224 3.61416 10.8519 3.57483 10.9841 3.57682C11.1836 3.57442 11.3761 3.65044 11.5201 3.78857C11.5927 3.84102 11.694 3.82468 11.7465 3.7521C11.7496 3.74784 11.7524 3.74345 11.7551 3.73894C11.8055 3.66098 11.7851 3.55697 11.7087 3.50403C11.5062 3.33264 11.2494 3.23884 10.9841 3.23933C10.7787 3.23681 10.5775 3.29806 10.4084 3.41469C10.2481 3.52574 10.1499 3.70615 10.1437 3.90107C10.1431 3.99685 10.1695 4.0909 10.2198 4.17238C10.2958 4.28591 10.4025 4.37545 10.5275 4.43046C10.6649 4.4915 10.8094 4.53485 10.9577 4.5595C11.1181 4.58295 11.2729 4.63564 11.4143 4.715C11.4545 4.74011 11.4884 4.77406 11.5135 4.81426C11.5337 4.84582 11.5441 4.88267 11.5433 4.92014C11.538 5.01816 11.4848 5.10725 11.401 5.15837C11.2791 5.24079 11.1346 5.28356 10.9874 5.28079C10.7537 5.26685 10.5308 5.17743 10.3522 5.02602C10.279 4.96601 10.1711 4.97635 10.1106 5.04918C10.0532 5.12375 10.0649 5.23033 10.1371 5.29071C10.3753 5.49225 10.6726 5.6107 10.9841 5.6282C11.2041 5.63209 11.4196 5.56604 11.5995 5.4396C11.7725 5.32384 11.8785 5.13144 11.8841 4.92345C11.884 4.82419 11.8565 4.72687 11.8047 4.64221Z" fill="white"/>
<path d="M12.0491 6.42871H2.04698C1.90992 6.42871 1.79883 6.5398 1.79883 6.67686C1.79883 6.81392 1.90992 6.92501 2.04698 6.92501H12.0491C12.1862 6.92501 12.2973 6.81392 12.2973 6.67686C12.2973 6.5398 12.1862 6.42871 12.0491 6.42871Z" fill="white"/>
<path d="M10.944 8.44043H2.04698C1.90992 8.44043 1.79883 8.55152 1.79883 8.68858C1.79883 8.82564 1.90992 8.93673 2.04698 8.93673H10.944C11.0811 8.93673 11.1922 8.82564 11.1922 8.68858C11.1922 8.55152 11.0811 8.44043 10.944 8.44043Z" fill="white"/>
<path d="M10.944 9.72412H2.04698C1.90992 9.72412 1.79883 9.83521 1.79883 9.97227C1.79883 10.1093 1.90992 10.2204 2.04698 10.2204H10.944C11.0811 10.2204 11.1922 10.1093 11.1922 9.97227C11.1922 9.83521 11.0811 9.72412 10.944 9.72412Z" fill="white"/>
<path d="M10.944 11.0044H2.04698C1.90992 11.0044 1.79883 11.1155 1.79883 11.2525C1.79883 11.3896 1.90992 11.5007 2.04698 11.5007H10.944C11.0811 11.5007 11.1922 11.3896 11.1922 11.2525C11.1922 11.1155 11.0811 11.0044 10.944 11.0044Z" fill="white"/>
<path d="M10.944 12.2886H2.04698C1.90992 12.2886 1.79883 12.3997 1.79883 12.5367C1.79883 12.6738 1.90992 12.7849 2.04698 12.7849H10.944C11.0811 12.7849 11.1922 12.6738 11.1922 12.5367C11.1922 12.3997 11.0811 12.2886 10.944 12.2886Z" fill="white"/>
</svg>
