<svg width="15" height="20" viewBox="0 0 15 20" fill="none" xmlns="http://www.w3.org/2000/svg">
<path d="M13.9982 3.2073V18.45C13.9982 18.7261 13.7744 18.95 13.4982 18.95H1.5C1.22386 18.95 1 18.7261 1 18.45V1.5C1 1.22386 1.22386 1 1.5 1H11.6696M13.9982 3.2073L11.6696 1M13.9982 3.2073H12.1696C11.8934 3.2073 11.6696 2.98345 11.6696 2.7073V1" stroke="white" stroke-width="0.5"/>
<circle cx="7.80718" cy="8.4273" r="4.70171" stroke="white" stroke-width="0.5"/>
<rect x="9.26562" y="6.5708" width="0.618964" height="1.85689" rx="0.309482" fill="white"/>
<rect x="8.64648" y="7.80859" width="0.618964" height="1.85689" rx="0.309482" transform="rotate(-90 8.64648 7.80859)" fill="white"/>
<path fill-rule="evenodd" clip-rule="evenodd" d="M5 11.1008L6.94258 5.89301C7.06657 5.72768 7.14373 5.64502 7.2319 5.64502C7.32007 5.64502 7.39723 5.68635 7.52122 5.89301L9.4638 11.1008C9.44159 11.2484 9.40035 11.307 9.29847 11.3901C9.12721 11.413 9.05107 11.3742 8.92649 11.2661L8.18252 9.53018H6.23994L5.61997 11.2661C5.48799 11.3772 5.40594 11.4017 5.24799 11.3901C5.10192 11.312 5.04255 11.2534 5 11.1008ZM8.09324 8.88948L7.23418 6.84357L6.37512 8.88948H8.09324Z" fill="white"/>
<rect x="4.71484" y="15.2363" width="5.57068" height="0.618964" rx="0.309482" fill="white"/>
<rect x="4.71484" y="16.4741" width="5.57068" height="0.618964" rx="0.309482" fill="white"/>
</svg>
