<svg width="18" height="17" viewBox="0 0 18 17" fill="none" xmlns="http://www.w3.org/2000/svg">
<path fill-rule="evenodd" clip-rule="evenodd" d="M10 14.4558L11.9426 9.24799C12.0666 9.08266 12.1437 9 12.2319 9C12.3201 9 12.3972 9.04133 12.5212 9.24799L14.4638 14.4558C14.4416 14.6034 14.4004 14.6619 14.2985 14.7451C14.1272 14.768 14.0511 14.7292 13.9265 14.6211L13.1825 12.8852H11.2399L10.62 14.6211C10.488 14.7322 10.4059 14.7566 10.248 14.7451C10.1019 14.6669 10.0426 14.6084 10 14.4558ZM13.0932 12.2445L12.2342 10.1986L11.3751 12.2445H13.0932Z" fill="white"/>
<rect x="0.25" y="0.25" width="9.5" height="8.5" rx="0.75" stroke="white" stroke-width="0.5"/>
<path d="M9.5 7H16C16.5523 7 17 7.44772 17 8V15C17 15.5523 16.5523 16 16 16H8C7.44772 16 7 15.5523 7 15V8.90385" stroke="white" stroke-width="0.5"/>
<rect x="5" y="4" width="2" height="1" rx="0.5" transform="rotate(-90 5 4)" fill="white"/>
<rect x="2" y="3" width="6" height="1" rx="0.5" fill="white"/>
<path d="M8 7C5.88691 7 4 5.20914 4 3" stroke="white" stroke-width="0.75"/>
<path d="M2 7C4.11309 7 6 5.20914 6 3" stroke="white" stroke-width="0.75"/>
</svg>
