<svg width="15" height="17" viewBox="0 0 15 17" fill="none" xmlns="http://www.w3.org/2000/svg">
<path d="M13.7765 1.04541H1.2235C0.548878 1.04541 0 1.66747 0 2.43207V10.7505C0 11.5151 0.548878 12.1372 1.22353 12.1372H1.93881V15.5597C1.93881 15.7196 2.02383 15.8638 2.15414 15.925C2.1973 15.9452 2.24259 15.955 2.28753 15.955C2.37832 15.955 2.46756 15.9149 2.53427 15.8393L5.80079 12.1371H13.7765C14.4511 12.1371 15 11.5151 15 10.7504V2.43207C15 1.66747 14.4512 1.04541 13.7765 1.04541ZM13.7765 11.3465H5.65612C5.56589 11.3465 5.48392 11.3856 5.42201 11.4494C5.42146 11.4499 5.42081 11.4506 5.42025 11.4512C5.41601 11.4556 5.41167 11.4599 5.40763 11.4646L2.63643 14.6053V11.7418C2.63643 11.728 2.63582 11.7159 2.63459 11.7051C2.61824 11.504 2.46915 11.3465 2.28742 11.3465H1.2235C0.933517 11.3465 0.697619 11.0791 0.697619 10.7504V2.43207C0.697619 2.10343 0.933517 1.83608 1.2235 1.83608H13.7765C14.0665 1.83608 14.3024 2.10343 14.3024 2.43207V10.7505C14.3024 11.0791 14.0665 11.3465 13.7765 11.3465Z" fill="white"/>
<path d="M5.09683 3.93262H3.06365C2.871 3.93262 2.71484 4.10966 2.71484 4.32793C2.71484 4.54625 2.871 4.72325 3.06365 4.72325H5.09683C5.28949 4.72325 5.44564 4.54621 5.44564 4.32793C5.44564 4.10962 5.28946 3.93262 5.09683 3.93262Z" fill="white"/>
<path d="M8.72238 6.1958H3.06365C2.871 6.1958 2.71484 6.37284 2.71484 6.59112C2.71484 6.80943 2.871 6.98644 3.06365 6.98644H8.72238C8.91501 6.98644 9.07119 6.80946 9.07119 6.59112C9.07119 6.37284 8.91501 6.1958 8.72238 6.1958Z" fill="white"/>
<path d="M11.9359 3.93262H7.13397C6.94131 3.93262 6.78516 4.10966 6.78516 4.32793C6.78516 4.54625 6.94131 4.72325 7.13397 4.72325H11.9359C12.1286 4.72325 12.2847 4.54621 12.2847 4.32793C12.2847 4.10959 12.1286 3.93262 11.9359 3.93262Z" fill="white"/>
<path d="M11.9358 6.1958H10.673C10.4804 6.1958 10.3242 6.37284 10.3242 6.59112C10.3242 6.80946 10.4804 6.98644 10.673 6.98644H11.9358C12.1284 6.98644 12.2846 6.80946 12.2846 6.59112C12.2846 6.37277 12.1284 6.1958 11.9358 6.1958Z" fill="white"/>
<path d="M6.22245 8.45898H3.06365C2.871 8.45898 2.71484 8.63596 2.71484 8.8543C2.71484 9.07262 2.871 9.24963 3.06365 9.24963H6.22245C6.41511 9.24963 6.57126 9.07258 6.57126 8.8543C6.57126 8.63596 6.41511 8.45898 6.22245 8.45898Z" fill="white"/>
<path d="M11.9349 8.45898H8.07537C7.88274 8.45898 7.72656 8.63596 7.72656 8.8543C7.72656 9.07262 7.88277 9.24963 8.07537 9.24963H11.9349C12.1275 9.24963 12.2837 9.07258 12.2837 8.8543C12.2837 8.63596 12.1275 8.45898 11.9349 8.45898Z" fill="white"/>
</svg>
