<svg width="16" height="16" viewBox="0 0 16 16" fill="none" xmlns="http://www.w3.org/2000/svg">
<path d="M16 14.618V15.4908H0V0.509277H0.872704V14.6182H16V14.618H16ZM2.75081 7.34026C2.87409 7.34026 2.99098 7.31491 3.10051 7.27473L4.71703 9.80574C4.49268 10.018 4.35114 10.3164 4.35114 10.6495C4.35114 11.2919 4.8722 11.8128 5.5147 11.8128C6.15725 11.8128 6.67823 11.2919 6.67823 10.6495C6.67823 10.4711 6.63505 10.3044 6.56352 10.1533L8.68581 8.60214C8.85125 8.74321 9.06252 8.83121 9.2965 8.83121C9.55524 8.83121 9.78937 8.72674 9.95995 8.55849L12.1307 9.91609C12.0195 10.1096 11.9552 10.3333 11.9552 10.5725C11.9552 11.3036 12.5475 11.8959 13.2782 11.8959C14.0089 11.8959 14.6012 11.3036 14.6012 10.5725C14.6012 9.84152 14.0089 9.24921 13.2782 9.24921C12.9455 9.24921 12.642 9.37303 12.4095 9.57609L10.1884 8.18645C10.2204 8.09148 10.2417 7.99153 10.2417 7.88573C10.2417 7.36366 9.81849 6.94041 9.2965 6.94041C8.77423 6.94041 8.3509 7.36366 8.3509 7.88573C8.3509 8.01582 8.37734 8.13965 8.42512 8.25252L6.30622 9.80068C6.09841 9.60681 5.82153 9.48575 5.5149 9.48575C5.36265 9.48575 5.218 9.51706 5.08456 9.57032L3.47033 7.04286C3.65517 6.85857 3.76949 6.60372 3.76949 6.32228C3.76949 5.75979 3.31373 5.30403 2.75124 5.30403C2.1889 5.30403 1.73303 5.75979 1.73303 6.32228C1.73295 6.88473 2.18852 7.34026 2.75081 7.34026Z" fill="white"/>
</svg>
