<svg width="48" height="30" viewBox="0 0 48 30" fill="none" xmlns="http://www.w3.org/2000/svg">
<circle cx="24.2823" cy="7.80624" r="6.43075" stroke="white" stroke-width="2"/>
<path d="M14.1988 3.77246C10.3881 3.77246 7.29883 6.86169 7.29883 10.6724C7.29883 14.4832 10.3881 17.5724 14.1988 17.5724C15.5668 17.5724 16.8417 17.1744 17.9142 16.4877" stroke="white" stroke-width="2"/>
<path d="M34.7914 3.77246C38.6022 3.77246 41.6914 6.86169 41.6914 10.6724C41.6914 14.4832 38.6022 17.5724 34.7914 17.5724C33.4235 17.5724 32.1485 17.1744 31.076 16.4877" stroke="white" stroke-width="2"/>
<path d="M10.2871 29.4617C12.6556 24.0857 18.0308 20.3325 24.2827 20.3325C30.5345 20.3325 35.9097 24.0857 38.2782 29.4617" stroke="white" stroke-width="2"/>
<path d="M1.01172 28.8244C3.20388 25.4289 6.70506 22.9579 10.8015 22.125" stroke="white" stroke-width="2"/>
<path d="M46.998 28.8246C45.0489 25.3812 41.9358 22.8753 38.2935 22.0308" stroke="white" stroke-width="2"/>
</svg>
